<?xml version="1.0" encoding="UTF-8" standalone="no"?>
<svg
   xmlns:dc="http://purl.org/dc/elements/1.1/"
   xmlns:cc="http://creativecommons.org/ns#"
   xmlns:rdf="http://www.w3.org/1999/02/22-rdf-syntax-ns#"
   xmlns:svg="http://www.w3.org/2000/svg"
   xmlns="http://www.w3.org/2000/svg"
   xmlns:sodipodi="http://sodipodi.sourceforge.net/DTD/sodipodi-0.dtd"
   xmlns:inkscape="http://www.inkscape.org/namespaces/inkscape"
   id="Layer_1"
   data-name="Layer 1"
   viewBox="0 0 253.82 95"
   version="1.1"
   inkscape:version="0.91 r13725"
   sodipodi:docname="logo.svg">
  <metadata
     id="metadata39">
    <rdf:RDF>
      <cc:Work
         rdf:about="">
        <dc:format>image/svg+xml</dc:format>
        <dc:type
           rdf:resource="http://purl.org/dc/dcmitype/StillImage" />
      </cc:Work>
    </rdf:RDF>
  </metadata>
  <sodipodi:namedview
     pagecolor="#ffffff"
     bordercolor="#666666"
     borderopacity="1"
     objecttolerance="10"
     gridtolerance="10"
     guidetolerance="10"
     inkscape:pageopacity="0"
     inkscape:pageshadow="2"
     inkscape:window-width="640"
     inkscape:window-height="480"
     id="namedview37"
     showgrid="false"
     inkscape:current-layer="Layer_1" />
  <defs
     id="defs3">
    <style
       id="style5">.cls-1{fill:#ffbc10;}.cls-2{font-size:17px;font-family:Futura Md BT;}.cls-3{fill:#fff;}.cls-4{fill:#1e619e;}.cls-5{fill:#878787;}</style>
  </defs>
  <title
     id="title7">New_Set</title>
  <polygon
     class="cls-1"
     points="87.23 60.86 203.38 60.86 211.1 35.54 87.23 35.54 87.23 60.86"
     id="polygon9" />
  <polygon
     class="cls-1"
     points="208.24 60.86 214.68 60.86 222.4 35.54 215.96 35.54 208.24 60.86"
     id="polygon11" />
  <polygon
     class="cls-1"
     points="217.9 60.86 224.33 60.86 232.06 35.54 225.62 35.54 217.9 60.86"
     id="polygon13" />
  <polygon
     class="cls-1"
     points="228.27 60.86 234.7 60.86 242.43 35.54 235.99 35.54 228.27 60.86"
     id="polygon15" />
  <text
     class="cls-2"
     transform="translate(95.69 31.97)"
     id="text17"
     style="-inkscape-font-specification:'Arial, Normal';font-family:Arial;font-weight:normal;font-style:normal;font-stretch:normal;font-variant:normal;font-size:16.25px;text-anchor:start;text-align:start;writing-mode:lr;line-height:125%;"
     sodipodi:linespacing="125%">FREE<tspan
   class="cls-3"
   id="tspan19"
   style="-inkscape-font-specification:'Arial, Normal';font-family:Arial;font-weight:normal;font-style:normal;font-stretch:normal;font-variant:normal;font-size:16.25px;text-anchor:start;text-align:start;writing-mode:lr;line-height:125%;">
  <tspan
     x="0"
     y="22.32"
     id="tspan21"
     style="-inkscape-font-specification:'Arial, Normal';font-family:Arial;font-weight:normal;font-style:normal;font-stretch:normal;font-variant:normal;font-size:16.25px;text-anchor:start;text-align:start;writing-mode:lr;line-height:125%;">MEMBERSHIP</tspan>
</tspan>
</text>
  <path
     class="cls-1"
     d="M36.74,52.27l-0.49-.09c-0.28,1-2,1.72-4.18,1.72s-3.78-.7-4.15-1.62a9.14,9.14,0,0,0-7.39,9.38c11.66,3.58,23.61,0,23.61,0A9.14,9.14,0,0,0,36.74,52.27Z"
     id="path23" />
  <path
     class="cls-1"
     d="M37.79,45.56c0-4.66-2.44-6.35-5.44-6.35s-5.44,1.69-5.44,6.35c0,3.51,2.44,6.35,5.44,6.35S37.79,49.06,37.79,45.56Z"
     id="path25" />
  <path
     class="cls-4"
     d="M87.24,74.58H12.33V26.1H46.27V30h7V26.1H87.24V74.58ZM16,70.89H83.55V29.79H57v3.85H42.58V29.79H16v41.1Z"
     id="path27"
     style="fill:#878787;fill-opacity:1" />
  <rect
     class="cls-4"
     x="47.77"
     y="19.2"
     width="4.1"
     height="9.49"
     id="rect29"
     style="fill:#878787;fill-opacity:1" />
  <rect
     class="cls-5"
     x="48.15"
     y="59.02"
     width="29.58"
     height="2.32"
     id="rect31" />
  <rect
     class="cls-5"
     x="48.15"
     y="50.23"
     width="29.58"
     height="2.32"
     id="rect33" />
  <rect
     class="cls-5"
     x="48.15"
     y="41.44"
     width="29.58"
     height="2.32"
     id="rect35" />
</svg>
